<svg width="12" height="12" viewBox="0 0 12 12" fill="none" xmlns="http://www.w3.org/2000/svg">
<g id="Add-s">
<path id="Union" d="M6.44795 2.84374C6.44795 2.64239 6.28472 2.47916 6.08336 2.47916C5.88201 2.47916 5.71878 2.64239 5.71878 2.84374V5.76041H2.80211C2.60076 5.76041 2.43753 5.92364 2.43753 6.12499C2.43753 6.32634 2.60076 6.48957 2.80211 6.48957H5.71878V9.40624C5.71878 9.60759 5.88201 9.77082 6.08336 9.77082C6.28472 9.77082 6.44795 9.60759 6.44795 9.40624V6.48957H9.36461C9.56597 6.48957 9.7292 6.32634 9.7292 6.12499C9.7292 5.92364 9.56597 5.76041 9.36461 5.76041H6.44795V2.84374Z" fill="black" fill-opacity="0.4"/>
</g>
</svg>
