<svg width="16" height="16" viewBox="0 0 16 16" fill="none" xmlns="http://www.w3.org/2000/svg">
<g id="Bell">
<path id="Vector" d="M3.86819 6.88281C3.86741 6.34255 3.97355 5.80743 4.1805 5.30837C4.38745 4.80927 4.69108 4.35607 5.07382 3.97484C5.45668 3.5936 5.91118 3.29185 6.41108 3.08699C6.91109 2.88216 7.4466 2.77824 7.98689 2.78124C10.2427 2.79835 12.0485 4.67253 12.0485 6.93407V7.33854C12.0485 9.37794 12.4758 10.5628 12.8517 11.2122C12.8916 11.2814 12.9128 11.3599 12.9128 11.4397C12.9129 11.5196 12.892 11.598 12.8522 11.6673C12.8123 11.7365 12.755 11.7941 12.686 11.8342C12.6169 11.8743 12.5385 11.8956 12.4587 11.8958H3.45808C3.37819 11.8956 3.29975 11.8743 3.23077 11.8342C3.16168 11.7941 3.10438 11.7365 3.06454 11.6673C3.02471 11.598 3.00379 11.5196 3.00391 11.4397C3.00402 11.3599 3.02505 11.2814 3.06499 11.2122C3.44094 10.5628 3.86819 9.37794 3.86819 7.33854V6.88281Z" fill="black" fill-opacity="0.1"/>
<path id="Vector_2" fill-rule="evenodd" clip-rule="evenodd" d="M3.41247 7.33853V6.8828C3.41247 6.8828 3.41119 5.97395 3.75952 5.1338C3.75952 5.1338 4.10785 4.29366 4.75229 3.65189C4.75229 3.65189 5.39674 3.01012 6.23832 2.66529C6.23832 2.66529 7.07991 2.32045 7.98939 2.32551C7.98939 2.32551 8.91416 2.33252 9.75627 2.70196C9.75627 2.70196 10.5665 3.0574 11.1902 3.69808C11.1902 3.69808 11.8115 4.33625 12.1522 5.15915C12.1522 5.15915 12.5043 6.00947 12.5043 6.93407V7.33853C12.5043 7.33853 12.5043 9.70244 13.2462 10.9839C13.2462 10.9839 13.3683 11.1955 13.3685 11.4393C13.3685 11.4393 13.3688 11.6831 13.2472 11.8944C13.2472 11.8944 13.1257 12.1058 12.9149 12.2282C12.9149 12.2282 12.7041 12.3507 12.4603 12.3515L3.45804 12.3515C3.45804 12.3515 3.21264 12.3507 3.00183 12.2282C3.00183 12.2282 2.79102 12.1058 2.6695 11.8944C2.6695 11.8944 2.54797 11.6831 2.54819 11.4393C2.54819 11.4393 2.5484 11.1955 2.6703 10.9844C2.6703 10.9844 3.41247 9.70243 3.41247 7.33853ZM4.32393 7.33853C4.32393 7.33853 4.32393 9.94724 3.45965 11.4401L12.4571 11.4401C12.4571 11.4401 11.5928 9.94684 11.5928 7.33853V6.93407C11.5928 6.93407 11.5928 5.41828 10.5371 4.33388C10.5371 4.33388 9.48024 3.24829 7.98431 3.23696C7.98431 3.23696 7.25696 3.23291 6.5839 3.50869C6.5839 3.50869 5.91084 3.78447 5.39545 4.29773C5.39545 4.29773 4.88006 4.81098 4.60148 5.48289C4.60148 5.48289 4.3229 6.15479 4.32393 6.8828V7.33853Z" fill="#1C1C1C"/>
<path id="Vector_3" d="M10.237 12.3516V11.8958C10.237 11.6441 10.033 11.4401 9.78128 11.4401C9.52959 11.4401 9.32555 11.6441 9.32555 11.8958V12.3516C9.32555 12.9179 8.92511 13.3183 8.92511 13.3183C8.52467 13.7187 7.95836 13.7187 7.95836 13.7187C7.39206 13.7187 6.99162 13.3183 6.99162 13.3183C6.59118 12.9179 6.59118 12.3516 6.59118 12.3516V11.8958C6.59118 11.6441 6.38714 11.4401 6.13545 11.4401C5.88375 11.4401 5.67972 11.6441 5.67972 11.8958L5.67972 12.3516C5.67972 13.2954 6.34712 13.9628 6.34712 13.9628C7.01452 14.6302 7.95836 14.6302 7.95836 14.6302C8.90221 14.6302 9.56961 13.9628 9.56961 13.9628C10.237 13.2954 10.237 12.3516 10.237 12.3516Z" fill="#1C1C1C"/>
</g>
</svg>
