<svg width="10" height="10" viewBox="0 0 10 10" fill="none" xmlns="http://www.w3.org/2000/svg">
<g id="ChatText-r">
<g id="Vector">
<path fill-rule="evenodd" clip-rule="evenodd" d="M2.25891 8.55406L3.34529 7.64269L3.38079 7.63022H7.92448C7.92448 7.63022 8.15101 7.63022 8.31118 7.47004C8.31118 7.47004 8.47136 7.30987 8.47136 7.08334V2.70834C8.47136 2.70834 8.47136 2.48182 8.31118 2.32164C8.31118 2.32164 8.15101 2.16147 7.92448 2.16147H1.90886C1.90886 2.16147 1.68234 2.16147 1.52216 2.32164C1.52216 2.32164 1.36198 2.48182 1.36198 2.70834L1.36199 8.13824C1.36199 8.13824 1.36325 8.29654 1.44887 8.4297C1.44887 8.4297 1.53449 8.56285 1.678 8.62967C1.678 8.62967 1.82151 8.6965 1.97852 8.67633C1.97852 8.67633 2.13554 8.65616 2.25891 8.55406ZM3.24351 7.0988C3.27264 7.08857 3.30328 7.08334 3.33415 7.08334H7.92448V2.70834H1.90886L1.90885 8.13391L3.03195 7.19173C3.05717 7.17058 3.08599 7.15415 3.11705 7.14324L3.24351 7.0988Z" fill="black" fill-opacity="0.4"/>
<path d="M3.82292 4.62241H6.01042C6.16144 4.62241 6.28386 4.49998 6.28386 4.34897C6.28386 4.19795 6.16144 4.07553 6.01042 4.07553H3.82292C3.67191 4.07553 3.54948 4.19795 3.54948 4.34897C3.54948 4.49998 3.67191 4.62241 3.82292 4.62241Z" fill="black" fill-opacity="0.4"/>
<path d="M3.82292 5.71616H6.01042C6.16144 5.71616 6.28386 5.59373 6.28386 5.44272C6.28386 5.2917 6.16144 5.16928 6.01042 5.16928H3.82292C3.67191 5.16928 3.54948 5.2917 3.54948 5.44272C3.54948 5.59373 3.67191 5.71616 3.82292 5.71616Z" fill="black" fill-opacity="0.4"/>
</g>
</g>
</svg>
