<svg width="15" height="16" viewBox="0 0 15 16" fill="none" xmlns="http://www.w3.org/2000/svg">
<g id="ClockCounterClockwise">
<path id="Vector" d="M12.7214 8.24999C12.7214 11.0186 10.477 13.263 7.70835 13.263C4.9397 13.263 2.69533 11.0186 2.69533 8.24999C2.69533 5.4814 4.9397 3.23697 7.70835 3.23697C10.477 3.23697 12.7214 5.4814 12.7214 8.24999Z" fill="black" fill-opacity="0.1"/>
<path id="Vector_2" d="M7.25262 5.51564V8.25001C7.25262 8.5017 7.45666 8.70574 7.70835 8.70574C7.96005 8.70574 8.16408 8.5017 8.16408 8.25001V5.51564C8.16408 5.26394 7.96005 5.05991 7.70835 5.05991C7.45666 5.05991 7.25262 5.26394 7.25262 5.51564Z" fill="#1C1C1C"/>
<path id="Vector_3" d="M7.93615 7.8553L10.3059 9.22245C10.4391 9.29932 10.5246 9.43822 10.5332 9.5918C10.5336 9.60026 10.5339 9.60873 10.5339 9.6172C10.5339 9.69715 10.5128 9.77569 10.4729 9.84494C10.396 9.97818 10.2571 10.0636 10.1035 10.0722C10.0951 10.0727 10.0866 10.0729 10.0781 10.0729C9.9982 10.0729 9.91966 10.0519 9.85041 10.0119L7.48068 8.64479C7.3782 8.58567 7.30275 8.48909 7.27022 8.37541L7.26819 8.3681C7.25786 8.32959 7.25262 8.28989 7.25262 8.25001C7.25262 8.17717 7.27008 8.1054 7.30354 8.0407C7.30675 8.03448 7.31011 8.02834 7.31361 8.02227C7.3727 7.91985 7.46928 7.84441 7.58296 7.81187L7.59026 7.80985C7.62877 7.79951 7.66848 7.79428 7.70835 7.79428C7.78119 7.79428 7.85297 7.81174 7.91767 7.84519C7.92389 7.84841 7.93003 7.85177 7.93615 7.8553Z" fill="#1C1C1C"/>
<path id="Vector_4" d="M2.68393 6.18212V4.3592C2.68393 4.10751 2.4799 3.90347 2.22821 3.90347C1.97651 3.90347 1.77248 4.10751 1.77248 4.3592V6.63785C1.77248 6.88954 1.97651 7.09358 2.22821 7.09358H4.50685C4.75854 7.09358 4.96258 6.88954 4.96258 6.63785C4.96258 6.38616 4.75854 6.18212 4.50685 6.18212H2.68393Z" fill="#1C1C1C"/>
<path id="Vector_5" d="M3.84328 4.38398L1.90643 6.31513C1.82067 6.40064 1.77248 6.51676 1.77248 6.63786C1.77248 6.6455 1.77267 6.65313 1.77305 6.66077C1.77872 6.77334 1.8259 6.87981 1.90548 6.95963C1.99099 7.04539 2.10711 7.09358 2.22821 7.09358C2.23584 7.09358 2.24348 7.09339 2.25112 7.09301C2.36369 7.08734 2.47016 7.04016 2.54998 6.96058L2.55024 6.96032L4.48683 5.02943C5.46475 4.05071 6.82079 3.78054 6.82079 3.78054C8.17683 3.51038 9.45438 4.03925 9.45438 4.03925C10.7319 4.56813 11.5002 5.71771 11.5002 5.71771C12.2685 6.86731 12.2685 8.25 12.2685 8.25C12.2685 9.63269 11.5002 10.7823 11.5002 10.7823C10.7319 11.9319 9.45438 12.4607 9.45438 12.4607C8.17683 12.9896 6.82079 12.7195 6.82079 12.7195C5.46475 12.4493 4.48744 11.4712 4.48744 11.4712C4.40196 11.3856 4.28599 11.3376 4.16506 11.3376C4.15725 11.3376 4.14945 11.3378 4.14166 11.3382C4.0291 11.344 3.92267 11.3912 3.84294 11.4709C3.75744 11.5563 3.70937 11.6722 3.70933 11.7931L3.70933 11.7933C3.70933 11.8005 3.7095 11.8078 3.70984 11.815C3.71524 11.9282 3.76259 12.0353 3.84267 12.1154L3.84281 12.1155C5.01554 13.2892 6.6427 13.6133 6.6427 13.6133C8.26995 13.9375 9.80301 13.3029 9.80301 13.3029C11.3361 12.6682 12.258 11.2887 12.258 11.2887C13.18 9.90923 13.18 8.25 13.18 8.25C13.18 6.59077 12.258 5.21126 12.258 5.21126C11.3361 3.83175 9.80301 3.1971 9.80301 3.1971C8.26995 2.56246 6.6427 2.88665 6.6427 2.88665C5.01545 3.21085 3.84328 4.38398 3.84328 4.38398Z" fill="#1C1C1C"/>
</g>
</svg>
