<svg width="16" height="16" viewBox="0 0 16 16" fill="none" xmlns="http://www.w3.org/2000/svg">
<g id="DotsThreeOutlineVertical-s">
<g id="Union">
<path d="M4.56255 7.21353C5.06594 7.21353 5.47401 7.62161 5.47401 8.12499C5.47401 8.62838 5.06594 9.03645 4.56255 9.03645C4.05917 9.03645 3.65109 8.62838 3.65109 8.12499C3.65109 7.62161 4.05917 7.21353 4.56255 7.21353Z" fill="black" fill-opacity="0.4"/>
<path d="M8.20838 7.21353C8.71177 7.21353 9.11984 7.62161 9.11984 8.12499C9.11984 8.62837 8.71177 9.03645 8.20838 9.03645C7.705 9.03645 7.29693 8.62837 7.29693 8.12499C7.29693 7.62161 7.705 7.21353 8.20838 7.21353Z" fill="black" fill-opacity="0.4"/>
<path d="M12.7657 8.12499C12.7657 7.62161 12.3576 7.21353 11.8542 7.21353C11.3508 7.21353 10.9428 7.62161 10.9428 8.12499C10.9428 8.62837 11.3508 9.03645 11.8542 9.03645C12.3576 9.03645 12.7657 8.62837 12.7657 8.12499Z" fill="black" fill-opacity="0.4"/>
</g>
</g>
</svg>
