<svg width="9" height="10" viewBox="0 0 9 10" fill="none" xmlns="http://www.w3.org/2000/svg">
<g id="Paperclip-f">
<path id="Vector" d="M7.37581 4.70101C7.42671 4.7533 7.4549 4.82357 7.45426 4.89654C7.45362 4.96951 7.4242 5.03927 7.3724 5.09066L4.56966 7.88998C4.21069 8.24895 3.72381 8.45062 3.21615 8.45062C2.70848 8.45062 2.22161 8.24895 1.86263 7.88998C1.50366 7.531 1.30199 7.04413 1.30199 6.53646C1.30199 6.02879 1.50366 5.54192 1.86263 5.18295L5.25667 1.74447C5.38225 1.61206 5.53306 1.50613 5.70022 1.43293C5.86738 1.35972 6.0475 1.32072 6.22997 1.31823C6.41244 1.31573 6.59356 1.34979 6.76266 1.41839C6.93176 1.487 7.08541 1.58876 7.21457 1.71769C7.34372 1.84661 7.44575 2.00008 7.51466 2.16906C7.58356 2.33804 7.61794 2.5191 7.61576 2.70157C7.61359 2.88404 7.57491 3.06424 7.502 3.23152C7.42909 3.39881 7.32343 3.54981 7.19124 3.67562L3.7972 7.1141C3.72134 7.19113 3.63088 7.25227 3.53111 7.29394C3.43134 7.33561 3.32427 7.35697 3.21615 7.35677C3.05361 7.35717 2.89462 7.30928 2.75935 7.21917C2.62408 7.12906 2.51863 7.0008 2.45637 6.85066C2.39412 6.70051 2.37787 6.53526 2.40969 6.37587C2.44151 6.21648 2.51996 6.07014 2.63509 5.95541L5.48226 3.06381C5.5069 3.03617 5.53689 3.01383 5.57042 2.99813C5.60395 2.98243 5.64032 2.9737 5.67732 2.97248C5.71432 2.97126 5.75119 2.97756 5.78568 2.99101C5.82018 3.00446 5.85158 3.02477 5.87799 3.05072C5.9044 3.07666 5.92527 3.1077 5.93932 3.14195C5.95338 3.1762 5.96034 3.21295 5.95977 3.24997C5.9592 3.28699 5.95112 3.32351 5.93602 3.35731C5.92091 3.39111 5.8991 3.42149 5.87191 3.44662L3.02474 6.34164C2.99882 6.36704 2.97822 6.39735 2.96414 6.4308C2.95005 6.46425 2.94277 6.50017 2.94271 6.53646C2.94371 6.59026 2.96037 6.64259 2.99064 6.68707C3.02091 6.73155 3.06349 6.76625 3.11317 6.78691C3.16284 6.80758 3.21746 6.81333 3.27035 6.80345C3.32324 6.79357 3.37211 6.76849 3.41097 6.73129L6.8016 3.28939C6.87863 3.21353 6.93977 3.12307 6.98144 3.0233C7.0231 2.92353 7.04447 2.81646 7.04427 2.70834C7.04467 2.5458 6.99678 2.38681 6.90667 2.25154C6.81656 2.11627 6.68829 2.01082 6.53815 1.94856C6.38801 1.88631 6.22276 1.87006 6.06337 1.90188C5.90398 1.9337 5.75763 2.01215 5.6429 2.12728L2.25228 5.56918C2.11987 5.69475 2.01394 5.84557 1.94074 6.01272C1.86753 6.17988 1.82853 6.36001 1.82604 6.54247C1.82354 6.72494 1.8576 6.90607 1.92621 7.07516C1.99481 7.24426 2.09657 7.39792 2.2255 7.52707C2.35442 7.65622 2.50789 7.75825 2.67687 7.82716C2.84585 7.89606 3.02691 7.93044 3.20938 7.92827C3.39185 7.92609 3.57205 7.88741 3.73933 7.8145C3.90662 7.74159 4.05762 7.63593 4.18343 7.50375L6.98617 4.70101C7.03801 4.64967 7.10802 4.62086 7.18099 4.62086C7.25396 4.62086 7.32397 4.64967 7.37581 4.70101Z" fill="black" fill-opacity="0.4"/>
</g>
</svg>
