<svg width="13" height="13" viewBox="0 0 13 13" fill="none" xmlns="http://www.w3.org/2000/svg">
<g id="Search-s">
<path id="Vector" d="M10.8386 10.8848C10.7705 10.9518 10.6789 10.9894 10.5834 10.9896C10.4865 10.9892 10.3936 10.9517 10.3236 10.8848L8.35484 8.91146C7.52568 9.60791 6.45966 9.95736 5.37911 9.88694C4.29856 9.81652 3.28691 9.33166 2.55516 8.53349C1.8234 7.73532 1.42804 6.68546 1.45153 5.60287C1.47502 4.52028 1.91554 3.48856 2.68123 2.72287C3.44691 1.95719 4.47863 1.51667 5.56122 1.49318C6.64381 1.46969 7.69367 1.86505 8.49184 2.59681C9.29001 3.32856 9.77487 4.34021 9.84529 5.42076C9.91571 6.5013 9.56626 7.56732 8.86981 8.39648L10.8386 10.3652C10.873 10.3992 10.9004 10.4396 10.919 10.4842C10.9377 10.5288 10.9473 10.5767 10.9473 10.625C10.9473 10.6733 10.9377 10.7212 10.919 10.7658C10.9004 10.8104 10.873 10.8508 10.8386 10.8848ZM5.66148 9.16667C6.3465 9.16667 7.01614 8.96353 7.58572 8.58295C8.15529 8.20238 8.59922 7.66144 8.86137 7.02856C9.12352 6.39569 9.19211 5.69928 9.05847 5.02742C8.92482 4.35556 8.59495 3.73842 8.11057 3.25403C7.62618 2.76965 7.00904 2.43978 6.33718 2.30613C5.66532 2.17249 4.96892 2.24108 4.33604 2.50323C3.70316 2.76538 3.16222 3.20931 2.78165 3.77888C2.40107 4.34846 2.19793 5.0181 2.19793 5.70312C2.19914 6.62134 2.56443 7.50161 3.21371 8.15089C3.86299 8.80017 4.74326 9.16546 5.66148 9.16667Z" fill="black" fill-opacity="0.2"/>
</g>
</svg>
