<svg width="16" height="16" viewBox="0 0 16 16" fill="none" xmlns="http://www.w3.org/2000/svg">
<g id="Sidebar">
<path id="Vector" d="M3.19532 12.8073C3.07444 12.8073 2.95856 12.7593 2.87305 12.6738C2.7876 12.5883 2.73959 12.4725 2.73959 12.3516V4.14845C2.73959 4.02756 2.7876 3.91168 2.87305 3.82618C2.95856 3.74073 3.07444 3.69272 3.19532 3.69272H5.9297V12.8073H3.19532Z" fill="black" fill-opacity="0.1"/>
<path id="Vector_2" d="M5.47397 3.6927V12.8073C5.47397 13.059 5.67801 13.263 5.9297 13.263C6.18139 13.263 6.38543 13.059 6.38543 12.8073V3.6927C6.38543 3.44101 6.18139 3.23697 5.9297 3.23697C5.67801 3.23697 5.47397 3.44101 5.47397 3.6927Z" fill="#1C1C1C"/>
<path id="Vector_3" fill-rule="evenodd" clip-rule="evenodd" d="M2.28384 4.14843C2.28384 4.14843 2.28384 3.77089 2.5508 3.50393C2.5508 3.50393 2.81776 3.23697 3.1953 3.23697H13.2213C13.2213 3.23697 13.5989 3.23697 13.8658 3.50393C13.8658 3.50393 14.1328 3.77089 14.1328 4.14843V12.3516C14.1328 12.3516 14.1328 12.7291 13.8658 12.9961C13.8658 12.9961 13.5989 13.263 13.2213 13.263H3.1953C3.1953 13.263 2.81776 13.263 2.5508 12.9961C2.5508 12.9961 2.28384 12.7291 2.28384 12.3516V4.14843ZM3.1953 4.14843V12.3516H13.2213V4.14843H3.1953Z" fill="#1C1C1C"/>
<path id="Vector_4" d="M2.73957 5.97136H4.10676C4.35845 5.97136 4.56249 5.76733 4.56249 5.51564C4.56249 5.26394 4.35845 5.05991 4.10676 5.05991H2.73957C2.48788 5.05991 2.28384 5.26394 2.28384 5.51564C2.28384 5.76733 2.48788 5.97136 2.73957 5.97136Z" fill="#1C1C1C"/>
<path id="Vector_5" d="M2.73957 7.79427H4.10676C4.35845 7.79427 4.56249 7.59023 4.56249 7.33854C4.56249 7.08685 4.35845 6.88281 4.10676 6.88281H2.73957C2.48788 6.88281 2.28384 7.08685 2.28384 7.33854C2.28384 7.59023 2.48788 7.79427 2.73957 7.79427Z" fill="#1C1C1C"/>
<path id="Vector_6" d="M2.73957 9.61718H4.10676C4.35845 9.61718 4.56249 9.41314 4.56249 9.16145C4.56249 8.90976 4.35845 8.70572 4.10676 8.70572H2.73957C2.48788 8.70572 2.28384 8.90976 2.28384 9.16145C2.28384 9.41314 2.48788 9.61718 2.73957 9.61718Z" fill="#1C1C1C"/>
</g>
</svg>
