<svg width="16" height="16" viewBox="0 0 16 16" fill="none" xmlns="http://www.w3.org/2000/svg">
<g id="Sidebar">
<path id="Vector" d="M3.19532 12.8073C3.07444 12.8073 2.95856 12.7593 2.87305 12.6738C2.7876 12.5883 2.73959 12.4725 2.73959 12.3516V4.14845C2.73959 4.02756 2.7876 3.91168 2.87305 3.82618C2.95856 3.74073 3.07444 3.69272 3.19532 3.69272H5.9297V12.8073H3.19532Z" fill="black" fill-opacity="0.1"/>
<path id="Vector_2" d="M5.47397 3.6927V12.8073C5.47397 13.059 5.67801 13.263 5.9297 13.263C6.18139 13.263 6.38543 13.059 6.38543 12.8073V3.6927C6.38543 3.44101 6.18139 3.23697 5.9297 3.23697C5.67801 3.23697 5.47397 3.44101 5.47397 3.6927Z" fill="#1C1C1C"/>
<path id="Vector_3" fill-rule="evenodd" clip-rule="evenodd" d="M2.28387 4.14843C2.28387 4.14843 2.28387 3.77089 2.55083 3.50393C2.55083 3.50393 2.81779 3.23697 3.19533 3.23697H13.2214C13.2214 3.23697 13.5989 3.23697 13.8659 3.50393C13.8659 3.50393 14.1328 3.77089 14.1328 4.14843V12.3516C14.1328 12.3516 14.1328 12.7291 13.8659 12.9961C13.8659 12.9961 13.5989 13.263 13.2214 13.263H3.19533C3.19533 13.263 2.81779 13.263 2.55083 12.9961C2.55083 12.9961 2.28387 12.7291 2.28387 12.3516V4.14843ZM3.19533 4.14843V12.3516H13.2214V4.14843H3.19533Z" fill="#1C1C1C"/>
<path id="Vector_4" d="M2.7396 5.97136H4.10679C4.35848 5.97136 4.56252 5.76733 4.56252 5.51564C4.56252 5.26394 4.35848 5.05991 4.10679 5.05991H2.7396C2.48791 5.05991 2.28387 5.26394 2.28387 5.51564C2.28387 5.76733 2.48791 5.97136 2.7396 5.97136Z" fill="#1C1C1C"/>
<path id="Vector_5" d="M2.7396 7.79427H4.10679C4.35848 7.79427 4.56252 7.59023 4.56252 7.33854C4.56252 7.08685 4.35848 6.88281 4.10679 6.88281H2.7396C2.48791 6.88281 2.28387 7.08685 2.28387 7.33854C2.28387 7.59023 2.48791 7.79427 2.7396 7.79427Z" fill="#1C1C1C"/>
<path id="Vector_6" d="M2.7396 9.61718H4.10679C4.35848 9.61718 4.56252 9.41314 4.56252 9.16145C4.56252 8.90976 4.35848 8.70572 4.10679 8.70572H2.7396C2.48791 8.70572 2.28387 8.90976 2.28387 9.16145C2.28387 9.41314 2.48791 9.61718 2.7396 9.61718Z" fill="#1C1C1C"/>
</g>
</svg>
