<svg width="15" height="16" viewBox="0 0 15 16" fill="none" xmlns="http://www.w3.org/2000/svg">
<g id="Star">
<path id="Vector" d="M7.70901 11.8218L10.5801 13.6447C10.9504 13.8782 11.4061 13.5307 11.2979 13.1035L10.4661 9.83365C10.4437 9.74299 10.4472 9.64787 10.4765 9.55916C10.5057 9.47049 10.5594 9.39185 10.6314 9.33235L13.2062 7.18472C13.5423 6.90559 13.3714 6.34163 12.9328 6.31315L9.57176 6.09666C9.48008 6.09132 9.39191 6.05939 9.31809 6.00476C9.24421 5.95013 9.18785 5.87517 9.15592 5.78905L7.90267 2.63313C7.86951 2.54192 7.80904 2.46315 7.7296 2.40746C7.6501 2.3518 7.55536 2.32193 7.45834 2.32193C7.36126 2.32193 7.26658 2.3518 7.18708 2.40746C7.10759 2.46315 7.04717 2.54192 7.01402 2.63313L5.76076 5.78905C5.72883 5.87517 5.67247 5.95013 5.5986 6.00476C5.52477 6.05939 5.4366 6.09132 5.34492 6.09666L1.98392 6.31315C1.54527 6.34163 1.37437 6.90559 1.71043 7.18472L4.28532 9.33235C4.3573 9.39185 4.41099 9.47049 4.44019 9.55916C4.46945 9.64787 4.47301 9.74299 4.45054 9.83365L3.6815 12.8643C3.55049 13.377 4.09734 13.7928 4.53599 13.5137L7.20767 11.8218C7.2826 11.7741 7.36955 11.7488 7.45834 11.7488C7.54713 11.7488 7.63408 11.7741 7.70901 11.8218V11.8218Z" fill="black" fill-opacity="0.1"/>
<path id="Vector_2" fill-rule="evenodd" clip-rule="evenodd" d="M7.46446 12.2063C7.46446 12.2063 7.46166 12.2046 7.45834 12.2046C7.45834 12.2046 7.45503 12.2046 7.45223 12.2063L4.7798 13.8987C4.7798 13.8987 4.49551 14.0796 4.16724 14.0567C4.16724 14.0567 3.86516 14.0356 3.61932 13.8487C3.61932 13.8487 3.37655 13.6642 3.27091 13.3802C3.27091 13.3802 3.15731 13.0748 3.23995 12.7514L4.0088 9.72156C4.0088 9.72156 4.01098 9.71274 4.00738 9.70182C4.00738 9.70182 4.00378 9.69089 3.99492 9.68357L1.41855 7.5347C1.41855 7.5347 1.18548 7.34113 1.10901 7.05089C1.10901 7.05089 1.03913 6.78564 1.1213 6.52019C1.1213 6.52019 1.20438 6.25177 1.41467 6.07403C1.41467 6.07403 1.64615 5.87839 1.95436 5.85837L5.31561 5.64188C5.31561 5.64188 5.32351 5.64142 5.3276 5.63839C5.3276 5.63839 5.33169 5.63536 5.33346 5.63059L5.3372 5.62086L6.58836 2.47019C6.58836 2.47019 6.68895 2.19998 6.92567 2.03419C6.92567 2.03419 7.16552 1.86621 7.45834 1.86621C7.45834 1.86621 7.75116 1.86621 7.99101 2.03419C7.99101 2.03419 8.22773 2.19998 8.32832 2.47019L9.57949 5.62086L9.58323 5.63059C9.58323 5.63059 9.58499 5.63536 9.58909 5.63839C9.58909 5.63839 9.59318 5.64142 9.59826 5.64171L12.9621 5.85836C12.9621 5.85836 13.2705 5.87839 13.502 6.07403C13.502 6.07403 13.7123 6.25177 13.7954 6.52019C13.7954 6.52019 13.8776 6.78565 13.8077 7.05089C13.8077 7.05089 13.7312 7.34113 13.4974 7.53531L10.9233 9.68232C10.9233 9.68232 10.9129 9.69089 10.9093 9.70182C10.9093 9.70182 10.9057 9.71274 10.9085 9.7239L11.7395 12.9912C11.7395 12.9912 11.8138 13.2842 11.7103 13.5608C11.7103 13.5608 11.614 13.8183 11.3935 13.9852C11.3935 13.9852 11.17 14.1545 10.895 14.1734C10.895 14.1734 10.5966 14.1939 10.337 14.0301L7.46507 12.2067L7.46472 12.2065L7.46446 12.2063ZM10.8232 13.2592L7.95361 11.4373L7.95327 11.437C7.95327 11.437 7.72675 11.2931 7.45834 11.2931C7.45834 11.2931 7.18978 11.2931 6.96315 11.4372L4.29216 13.1286C4.29216 13.1286 4.23013 13.1681 4.1709 13.1231C4.1709 13.1231 4.09957 13.0689 4.12302 12.9771L4.89226 9.94574C4.89226 9.94574 4.95892 9.67712 4.87305 9.41654C4.87305 9.41654 4.78717 9.15596 4.57573 8.98113L2.00236 6.83475C2.00236 6.83475 1.98302 6.81869 1.992 6.78969C1.992 6.78969 1.99844 6.76889 2.01342 6.76791L5.37419 6.55146C5.37419 6.55146 5.64737 6.53557 5.86964 6.37115C5.86964 6.37115 6.08949 6.20853 6.18594 5.95314L7.43756 2.80133L7.44228 2.78892C7.44228 2.78892 7.44412 2.78385 7.44854 2.78076C7.44854 2.78076 7.45295 2.77767 7.45834 2.77767C7.45834 2.77767 7.46373 2.77767 7.46814 2.78076C7.46814 2.78076 7.47256 2.78385 7.4744 2.78892L7.47912 2.80133L8.73075 5.95314C8.73075 5.95314 8.82719 6.20852 9.04704 6.37115C9.04704 6.37115 9.26931 6.53557 9.54531 6.55163L12.9035 6.76793C12.9035 6.76793 12.9182 6.76889 12.9247 6.78969C12.9247 6.78969 12.9337 6.81869 12.9151 6.83414L10.3395 8.98238C10.3395 8.98238 10.1295 9.15596 10.0436 9.41654C10.0436 9.41654 9.95777 9.67711 10.0238 9.9434L10.8562 13.2158C10.8562 13.2158 10.8632 13.2435 10.8433 13.2586C10.8433 13.2586 10.8337 13.2658 10.8232 13.2592Z" fill="#1C1C1C"/>
</g>
</svg>
