<svg width="15" height="16" viewBox="0 0 15 16" fill="none" xmlns="http://www.w3.org/2000/svg">
<g id="Sun">
<path id="Vector" d="M10.8763 8.25C10.8763 10.1377 9.34603 11.668 7.45836 11.668C5.57069 11.668 4.04039 10.1377 4.04039 8.25C4.04039 6.36233 5.57069 4.83203 7.45836 4.83203C9.34603 4.83203 10.8763 6.36233 10.8763 8.25Z" fill="black" fill-opacity="0.1"/>
<path id="Vector_2" fill-rule="evenodd" clip-rule="evenodd" d="M7.45835 4.37631C7.45835 4.37631 8.24615 4.37631 8.96631 4.68091C8.96631 4.68091 9.66156 4.97498 10.1975 5.51089C10.1975 5.51089 10.7334 6.04681 11.0275 6.74205C11.0275 6.74205 11.3321 7.46221 11.3321 8.25001C11.3321 8.25001 11.3321 9.03781 11.0275 9.75797C11.0275 9.75797 10.7334 10.4532 10.1975 10.9891C10.1975 10.9891 9.66156 11.525 8.96631 11.8191C8.96631 11.8191 8.24615 12.1237 7.45835 12.1237C7.45835 12.1237 6.67055 12.1237 5.9504 11.8191C5.9504 11.8191 5.25515 11.525 4.71924 10.9891C4.71924 10.9891 4.18332 10.4532 3.88926 9.75797C3.88926 9.75797 3.58466 9.03781 3.58466 8.25001C3.58466 8.25001 3.58466 7.46221 3.88926 6.74205C3.88926 6.74205 4.18332 6.04681 4.71924 5.51089C4.71924 5.51089 5.25515 4.97498 5.9504 4.68091C5.9504 4.68091 6.67055 4.37631 7.45835 4.37631ZM7.45835 5.28777C7.45835 5.28777 6.23135 5.28777 5.36373 6.15539C5.36373 6.15539 4.49611 7.02301 4.49611 8.25001C4.49611 8.25001 4.49611 9.47701 5.36373 10.3446C5.36373 10.3446 6.23135 11.2123 7.45835 11.2123C7.45835 11.2123 8.68535 11.2123 9.55297 10.3446C9.55297 10.3446 10.4206 9.47701 10.4206 8.25001C10.4206 8.25001 10.4206 7.02301 9.55297 6.15539C9.55297 6.15539 8.68535 5.28777 7.45835 5.28777Z" fill="#1C1C1C"/>
<path id="Vector_3" d="M7.91408 3.00911V1.86979C7.91408 1.6181 7.71005 1.41406 7.45835 1.41406C7.20666 1.41406 7.00262 1.6181 7.00262 1.86979V3.00911C7.00262 3.26081 7.20666 3.46484 7.45835 3.46484C7.71005 3.46484 7.91408 3.26081 7.91408 3.00911Z" fill="#1C1C1C"/>
<path id="Vector_4" d="M3.26888 3.41604C3.18342 3.33058 3.0675 3.28256 2.94663 3.28256C2.82577 3.28256 2.70985 3.33058 2.62439 3.41604C2.53892 3.50151 2.49091 3.61742 2.49091 3.73829C2.49091 3.85916 2.53892 3.97507 2.62439 4.06054L3.42761 4.86376C3.51307 4.94923 3.62899 4.99724 3.74986 4.99724C3.87072 4.99724 3.98664 4.94923 4.07211 4.86376C4.15757 4.7783 4.20559 4.66238 4.20559 4.54151C4.20559 4.42065 4.15757 4.30473 4.07211 4.21926L3.26888 3.41604Z" fill="#1C1C1C"/>
<path id="Vector_5" d="M2.21747 7.79428H1.07815C0.826458 7.79428 0.622421 7.99832 0.622421 8.25001C0.622421 8.5017 0.826458 8.70574 1.07815 8.70574H2.21747C2.46917 8.70574 2.6732 8.5017 2.6732 8.25001C2.6732 7.99832 2.46917 7.79428 2.21747 7.79428Z" fill="#1C1C1C"/>
<path id="Vector_6" d="M2.62439 12.4395C2.53892 12.5249 2.49091 12.6409 2.49091 12.7617C2.49091 12.7696 2.49111 12.7775 2.49152 12.7853C2.49735 12.8979 2.54469 13.0043 2.62439 13.084C2.70985 13.1694 2.82577 13.2175 2.94663 13.2175C3.0675 13.2175 3.18342 13.1694 3.26888 13.084L4.07211 12.2808C4.15757 12.1953 4.20559 12.0794 4.20559 11.9585C4.20559 11.8376 4.15757 11.7217 4.07211 11.6363C3.98664 11.5508 3.87072 11.5028 3.74986 11.5028C3.74199 11.5028 3.73413 11.503 3.72628 11.5034C3.61372 11.5092 3.50731 11.5566 3.42761 11.6363L2.62439 12.4395Z" fill="#1C1C1C"/>
<path id="Vector_7" d="M7.00262 13.4909V14.6302C7.00262 14.8819 7.20666 15.0859 7.45835 15.0859C7.71005 15.0859 7.91408 14.8819 7.91408 14.6302V13.4909C7.91408 13.2392 7.71005 13.0352 7.45835 13.0352C7.20666 13.0352 7.00262 13.2392 7.00262 13.4909Z" fill="#1C1C1C"/>
<path id="Vector_8" d="M10.8447 12.2808L11.6478 13.084C11.7333 13.1694 11.8492 13.2175 11.9701 13.2175C12.0909 13.2175 12.2069 13.1694 12.2923 13.084C12.3778 12.9985 12.4258 12.8826 12.4258 12.7617C12.4258 12.6409 12.3778 12.5249 12.2923 12.4395L11.4892 11.6363C11.4036 11.5508 11.2877 11.5028 11.1668 11.5028C11.046 11.5028 10.9301 11.5508 10.8446 11.6363C10.7591 11.7217 10.7111 11.8376 10.7111 11.9585C10.7111 12.0794 10.7591 12.1953 10.8447 12.2808Z" fill="#1C1C1C"/>
<path id="Vector_9" d="M12.6992 8.70574H13.8386C14.0903 8.70574 14.2943 8.5017 14.2943 8.25001C14.2943 7.99832 14.0903 7.79428 13.8386 7.79428H12.6992C12.4476 7.79428 12.2435 7.99832 12.2435 8.25001C12.2435 8.5017 12.4476 8.70574 12.6992 8.70574Z" fill="#1C1C1C"/>
<path id="Vector_10" d="M12.2923 4.06054C12.3778 3.97507 12.4258 3.85916 12.4258 3.73829C12.4258 3.61742 12.3778 3.50151 12.2923 3.41604C12.2069 3.33058 12.0909 3.28256 11.9701 3.28256C11.8492 3.28256 11.7333 3.33058 11.6478 3.41604L10.8447 4.21921C10.7591 4.30473 10.7111 4.42065 10.7111 4.54151C10.7111 4.66238 10.7591 4.7783 10.8446 4.86376C10.9301 4.94923 11.046 4.99724 11.1668 4.99724C11.2877 4.99724 11.4036 4.94923 11.4891 4.86376L12.2923 4.06054Z" fill="#1C1C1C"/>
</g>
</svg>
