<svg width="12" height="9" viewBox="0 0 12 9" fill="none" xmlns="http://www.w3.org/2000/svg">
<path d="M2.23835 7.39293C1.99184 7.39293 1.76605 7.33286 1.56097 7.21271C1.35589 7.09049 1.19225 6.92685 1.07003 6.72177C0.94988 6.51669 0.889807 6.2909 0.889807 6.04439C0.889807 5.79581 0.94988 5.56898 1.07003 5.3639C1.19225 5.15882 1.35589 4.99518 1.56097 4.87296C1.76605 4.75074 1.99184 4.68963 2.23835 4.68963H2.95923V3.44052H2.23835C1.99184 3.44052 1.76605 3.38044 1.56097 3.2603C1.35589 3.13808 1.19225 2.97547 1.07003 2.77246C0.94988 2.56738 0.889807 2.34055 0.889807 2.09197C0.889807 1.84339 0.94988 1.6176 1.07003 1.41459C1.19225 1.20952 1.35589 1.0469 1.56097 0.926758C1.76605 0.804539 1.99184 0.74343 2.23835 0.74343C2.48693 0.74343 2.71376 0.804539 2.91884 0.926758C3.12392 1.0469 3.28756 1.20952 3.40978 1.41459C3.532 1.6176 3.59311 1.84339 3.59311 2.09197V2.80664H4.84222V2.09197C4.84222 1.84339 4.90229 1.6176 5.02244 1.41459C5.14466 1.20952 5.30727 1.0469 5.51028 0.926758C5.71536 0.804539 5.94219 0.74343 6.19077 0.74343C6.43935 0.74343 6.66514 0.804539 6.86814 0.926758C7.07322 1.0469 7.23584 1.20952 7.35598 1.41459C7.4782 1.6176 7.53931 1.84339 7.53931 2.09197C7.53931 2.34055 7.4782 2.56738 7.35598 2.77246C7.23584 2.97547 7.07322 3.13808 6.86814 3.2603C6.66514 3.38044 6.43935 3.44052 6.19077 3.44052H5.4761V4.68963H6.19077C6.43935 4.68963 6.66514 4.75074 6.86814 4.87296C7.07322 4.99518 7.23584 5.15882 7.35598 5.3639C7.4782 5.56898 7.53931 5.79581 7.53931 6.04439C7.53931 6.2909 7.4782 6.51669 7.35598 6.72177C7.23584 6.92685 7.07322 7.09049 6.86814 7.21271C6.66514 7.33286 6.43935 7.39293 6.19077 7.39293C5.94219 7.39293 5.71536 7.33286 5.51028 7.21271C5.30727 7.09049 5.14466 6.92685 5.02244 6.72177C4.90229 6.51669 4.84222 6.2909 4.84222 6.04439V5.32351H3.59311V6.04439C3.59311 6.2909 3.532 6.51669 3.40978 6.72177C3.28756 6.92685 3.12392 7.09049 2.91884 7.21271C2.71376 7.33286 2.48693 7.39293 2.23835 7.39293ZM2.23835 6.75906C2.37093 6.75906 2.49107 6.72695 2.59879 6.66273C2.70858 6.59851 2.79558 6.51255 2.8598 6.40483C2.92609 6.29504 2.95923 6.17489 2.95923 6.04439V5.32351H2.23835C2.10785 5.32351 1.9877 5.35665 1.87791 5.42294C1.77019 5.48716 1.68423 5.57416 1.62001 5.68395C1.55579 5.79167 1.52368 5.91181 1.52368 6.04439C1.52368 6.17489 1.55579 6.29504 1.62001 6.40483C1.68423 6.51255 1.77019 6.59851 1.87791 6.66273C1.9877 6.72695 2.10785 6.75906 2.23835 6.75906ZM2.23835 2.80664H2.95923V2.09197C2.95923 1.9594 2.92609 1.83925 2.8598 1.73153C2.79558 1.62382 2.70858 1.53785 2.59879 1.47363C2.49107 1.40942 2.37093 1.37731 2.23835 1.37731C2.10785 1.37731 1.9877 1.40942 1.87791 1.47363C1.77019 1.53785 1.68423 1.62382 1.62001 1.73153C1.55579 1.83925 1.52368 1.9594 1.52368 2.09197C1.52368 2.22455 1.55579 2.34573 1.62001 2.45552C1.68423 2.56324 1.77019 2.64921 1.87791 2.71342C1.9877 2.77557 2.10785 2.80664 2.23835 2.80664ZM5.4761 2.80664H6.19077C6.32334 2.80664 6.44349 2.77557 6.55121 2.71342C6.65892 2.64921 6.74489 2.56324 6.80911 2.45552C6.87332 2.34573 6.90543 2.22455 6.90543 2.09197C6.90543 1.9594 6.87332 1.83925 6.80911 1.73153C6.74489 1.62382 6.65892 1.53785 6.55121 1.47363C6.44349 1.40942 6.32334 1.37731 6.19077 1.37731C6.05819 1.37731 5.93701 1.40942 5.82722 1.47363C5.7195 1.53785 5.63353 1.62382 5.56932 1.73153C5.50717 1.83925 5.4761 1.9594 5.4761 2.09197V2.80664ZM6.19077 6.75906C6.32334 6.75906 6.44349 6.72695 6.55121 6.66273C6.65892 6.59851 6.74489 6.51255 6.80911 6.40483C6.87332 6.29504 6.90543 6.17489 6.90543 6.04439C6.90543 5.91181 6.87332 5.79167 6.80911 5.68395C6.74489 5.57416 6.65892 5.48716 6.55121 5.42294C6.44349 5.35665 6.32334 5.32351 6.19077 5.32351H5.4761V6.04439C5.4761 6.17489 5.50717 6.29504 5.56932 6.40483C5.63353 6.51255 5.7195 6.59851 5.82722 6.66273C5.93701 6.72695 6.05819 6.75906 6.19077 6.75906ZM3.59311 4.68963H4.84222V3.44052H3.59311V4.68963ZM11.5127 0.588068L9.46192 8.20703H8.79075L10.8415 0.588068H11.5127Z" fill="black" fill-opacity="0.2"/>
</svg>
