<svg width="12" height="13" viewBox="0 0 12 13" fill="none" xmlns="http://www.w3.org/2000/svg">
<g id="Broadcast">
<g id="Vector">
<path fill-rule="evenodd" clip-rule="evenodd" d="M6.08336 4.80208C6.08336 4.80208 6.83843 4.80208 7.37235 5.336C7.37235 5.336 7.90627 5.86992 7.90627 6.625C7.90627 6.625 7.90627 7.38008 7.37235 7.914C7.37235 7.914 6.83843 8.44792 6.08336 8.44792C6.08336 8.44792 5.32828 8.44792 4.79436 7.914C4.79436 7.914 4.26044 7.38008 4.26044 6.625C4.26044 6.625 4.26044 5.86992 4.79436 5.336C4.79436 5.336 5.32828 4.80208 6.08336 4.80208ZM6.08336 5.53125C6.08336 5.53125 5.63031 5.53125 5.30996 5.8516C5.30996 5.8516 4.98961 6.17195 4.98961 6.625C4.98961 6.625 4.98961 7.07805 5.30996 7.3984C5.30996 7.3984 5.63031 7.71875 6.08336 7.71875C6.08336 7.71875 6.5364 7.71875 6.85676 7.3984C6.85676 7.3984 7.17711 7.07805 7.17711 6.625C7.17711 6.625 7.17711 6.17195 6.85676 5.8516C6.85676 5.8516 6.5364 5.53125 6.08336 5.53125Z" fill="#1C1C1C"/>
<path d="M4.02135 4.56326C4.08972 4.49489 4.12828 4.40201 4.12828 4.30532C4.12828 4.2087 4.08992 4.11603 4.02164 4.04766C3.95326 3.97929 3.86039 3.94074 3.76369 3.94074C3.66707 3.94074 3.5744 3.97909 3.50604 4.04738C3.00199 4.55087 2.7258 5.2076 2.7258 5.2076C2.43744 5.88626 2.43744 6.62498 2.43744 6.62498C2.43744 7.3637 2.72632 8.0436 2.72632 8.0436C3.00199 8.69909 3.50604 9.20258 3.50604 9.20258C3.5744 9.27087 3.66707 9.30923 3.76369 9.30923C3.86039 9.30917 3.9533 9.27071 4.02163 9.2023C4.08992 9.13394 4.12828 9.04127 4.12828 8.94465C4.12822 8.84795 4.08976 8.75504 4.02135 8.6867C3.61862 8.28441 3.39742 7.75845 3.39742 7.75845C3.1666 7.21522 3.1666 6.62498 3.1666 6.62498C3.1666 6.03475 3.39794 5.49028 3.39794 5.49028C3.61862 4.96555 4.02135 4.56326 4.02135 4.56326Z" fill="#1C1C1C"/>
<path d="M8.66081 4.04752C9.16476 4.55097 9.44039 5.20637 9.44039 5.20637C9.72927 5.88626 9.72927 6.62498 9.72927 6.62498C9.72927 7.36371 9.44091 8.04236 9.44091 8.04236C9.16472 8.69909 8.66067 9.20258 8.66067 9.20258C8.59688 9.26631 8.51173 9.30413 8.42168 9.30875C8.41546 9.30907 8.40924 9.30923 8.40301 9.30923C8.30625 9.30923 8.21346 9.27076 8.14507 9.2023C8.08102 9.13818 8.04315 9.05249 8.03884 8.96196C8.03857 8.95619 8.03843 8.95042 8.03843 8.94464C8.03849 8.84795 8.07695 8.75504 8.14536 8.6867C8.54809 8.28441 8.76876 7.75969 8.76876 7.75969C9.00011 7.21522 9.00011 6.62498 9.00011 6.62498C9.00011 6.03475 8.76929 5.49152 8.76929 5.49152C8.54809 4.96555 8.14536 4.56326 8.14536 4.56326C8.0769 4.49488 8.03843 4.40208 8.03843 4.30532C8.03843 4.20944 8.0762 4.11743 8.14355 4.0492L8.14507 4.04766C8.20546 3.98721 8.28516 3.94989 8.37025 3.94221C8.38108 3.94124 8.39194 3.94074 8.40281 3.94074C8.49787 3.94074 8.58937 3.97786 8.65746 4.04421L8.66081 4.04752Z" fill="#1C1C1C"/>
<path d="M2.73177 3.27346L2.73344 3.27179C2.80079 3.20355 2.83856 3.11154 2.83856 3.01566C2.83856 2.91885 2.80005 2.82602 2.73154 2.75763L2.72841 2.75455C2.66033 2.6882 2.56903 2.65108 2.47397 2.65108C2.46315 2.65109 2.45199 2.65158 2.44121 2.65255C2.35607 2.66023 2.27633 2.69759 2.21594 2.7581C1.4622 3.51329 1.04468 4.49546 1.04468 4.49546C0.614563 5.51747 0.614563 6.62504 0.614563 6.62504C0.614563 7.7326 1.04419 8.75344 1.04419 8.75344C1.46207 9.73672 2.21594 10.492 2.21594 10.492C2.28425 10.5604 2.37694 10.5989 2.47364 10.599C2.47937 10.599 2.48543 10.5989 2.49115 10.5986C2.58169 10.5943 2.66739 10.5565 2.73154 10.4924C2.80005 10.4241 2.83856 10.3312 2.83856 10.2344C2.83856 10.2282 2.8384 10.2221 2.83809 10.2159C2.8335 10.1258 2.79571 10.0407 2.73201 9.97685C2.07791 9.32154 1.71626 8.47059 1.71626 8.47059C1.34373 7.58541 1.34373 6.62504 1.34373 6.62504C1.34373 5.66466 1.71576 4.78066 1.71576 4.78066C2.07784 3.92868 2.73177 3.27346 2.73177 3.27346Z" fill="#1C1C1C"/>
<path d="M9.951 2.75832L9.95054 2.75786C9.88225 2.68957 9.78965 2.65117 9.69308 2.65108C9.5965 2.65108 9.50353 2.6894 9.43518 2.75762C9.36681 2.826 9.32816 2.91897 9.32816 3.01566C9.32816 3.11224 9.36648 3.20487 9.43471 3.27322C10.0888 3.92853 10.4505 4.77948 10.4505 4.77948C10.823 5.66466 10.823 6.62504 10.823 6.62504C10.823 7.58541 10.451 8.46941 10.451 8.46941C10.0888 9.32154 9.43471 9.97685 9.43471 9.97685C9.36648 10.0452 9.32816 10.1378 9.32816 10.2344C9.32825 10.3311 9.36674 10.4241 9.43518 10.4924C9.50353 10.5607 9.59616 10.599 9.69274 10.599C9.78944 10.5989 9.88247 10.5604 9.95078 10.492C10.7046 9.73672 11.122 8.75462 11.122 8.75462C11.5522 7.7326 11.5522 6.62504 11.5522 6.62504C11.5522 5.51748 11.1225 4.49663 11.1225 4.49663C10.7047 3.5135 9.951 2.75832 9.951 2.75832Z" fill="#1C1C1C"/>
</g>
</g>
</svg>
