<svg width="12" height="12" viewBox="0 0 12 12" fill="none" xmlns="http://www.w3.org/2000/svg">
<g id="BugBeetle">
<g id="Vector">
<path fill-rule="evenodd" clip-rule="evenodd" d="M2.43753 4.78125C2.43753 4.78125 2.43753 4.03975 2.72419 3.36202C2.72419 3.36202 3.00095 2.70768 3.50537 2.20326C3.50537 2.20326 4.00979 1.69884 4.66413 1.42207C4.66413 1.42207 5.34186 1.13542 6.08336 1.13542C6.08336 1.13542 6.82486 1.13542 7.5026 1.42207C7.5026 1.42207 8.15694 1.69884 8.66136 2.20326C8.66136 2.20326 9.16578 2.70768 9.44254 3.36202C9.44254 3.36202 9.7292 4.03975 9.7292 4.78125V6.96875C9.7292 6.96875 9.7292 7.71025 9.44254 8.38799C9.44254 8.38799 9.16578 9.04232 8.66136 9.54674C8.66136 9.54674 8.15694 10.0512 7.5026 10.3279C7.5026 10.3279 6.82486 10.6146 6.08336 10.6146C6.08336 10.6146 5.34186 10.6146 4.66413 10.3279C4.66413 10.3279 4.00979 10.0512 3.50537 9.54674C3.50537 9.54674 3.00095 9.04232 2.72419 8.38798C2.72419 8.38798 2.43753 7.71025 2.43753 6.96875V4.78125ZM3.1667 4.78125V6.96875C3.1667 6.96875 3.1667 8.17687 4.02097 9.03114C4.02097 9.03114 4.87524 9.88542 6.08336 9.88542C6.08336 9.88542 7.29149 9.88542 8.14576 9.03114C8.14576 9.03114 9.00003 8.17687 9.00003 6.96875V4.78125C9.00003 4.78125 9.00003 3.57313 8.14576 2.71886C8.14576 2.71886 7.29149 1.86458 6.08336 1.86458C6.08336 1.86458 4.87524 1.86458 4.02097 2.71886C4.02097 2.71886 3.1667 3.57313 3.1667 4.78125Z" fill="#1C1C1C"/>
<path d="M9.36461 6.60417H10.4584C10.6597 6.60417 10.8229 6.44094 10.8229 6.23958C10.8229 6.03823 10.6597 5.875 10.4584 5.875H9.36461C9.16326 5.875 9.00003 6.03823 9.00003 6.23958C9.00003 6.44094 9.16326 6.60417 9.36461 6.60417Z" fill="#1C1C1C"/>
<path d="M1.70836 6.60417H2.80211C3.00347 6.60417 3.1667 6.44094 3.1667 6.23958C3.1667 6.03823 3.00347 5.875 2.80211 5.875H1.70836C1.50701 5.875 1.34378 6.03823 1.34378 6.23958C1.34378 6.44094 1.50701 6.60417 1.70836 6.60417Z" fill="#1C1C1C"/>
<path d="M1.70836 8.0625H2.88414C3.0855 8.0625 3.24873 7.89927 3.24873 7.69792C3.24873 7.49656 3.0855 7.33333 2.88414 7.33333H1.70836C1.50701 7.33333 1.34378 7.49656 1.34378 7.69792C1.34378 7.89927 1.50701 8.0625 1.70836 8.0625Z" fill="#1C1C1C"/>
<path d="M1.70836 5.14583H10.4584C10.6597 5.14583 10.8229 4.9826 10.8229 4.78125C10.8229 4.5799 10.6597 4.41667 10.4584 4.41667H1.70836C1.50701 4.41667 1.34378 4.5799 1.34378 4.78125C1.34378 4.9826 1.50701 5.14583 1.70836 5.14583Z" fill="#1C1C1C"/>
<path d="M5.71878 6.23958V10.25C5.71878 10.4514 5.88201 10.6146 6.08336 10.6146C6.28472 10.6146 6.44795 10.4514 6.44795 10.25V6.23958C6.44795 6.03823 6.28472 5.875 6.08336 5.875C5.88201 5.875 5.71878 6.03823 5.71878 6.23958Z" fill="#1C1C1C"/>
<path d="M9.28259 8.0625H10.4584C10.6597 8.0625 10.823 7.89927 10.823 7.69792C10.823 7.49656 10.6597 7.33333 10.4584 7.33333H9.28259C9.08124 7.33333 8.91801 7.49656 8.91801 7.69792C8.91801 7.89927 9.08124 8.0625 9.28259 8.0625Z" fill="#1C1C1C"/>
<path d="M2.5465 1.58209L3.63114 2.61203C3.69889 2.67637 3.78876 2.71224 3.88219 2.71224L3.88287 2.71224L3.89161 2.71212C3.98827 2.70962 4.07998 2.66882 4.14657 2.5987C4.2109 2.53095 4.24677 2.44109 4.24677 2.34766L4.24677 2.34697L4.24665 2.33823C4.24415 2.24157 4.20335 2.14986 4.13324 2.08328L3.0486 1.05333C2.98085 0.988995 2.89098 0.953125 2.79755 0.953125L2.78813 0.953247C2.69147 0.955747 2.59976 0.996543 2.53317 1.06666C2.46884 1.13441 2.43297 1.22428 2.43297 1.31771L2.43309 1.32713C2.43559 1.4238 2.47639 1.5155 2.5465 1.58209Z" fill="#1C1C1C"/>
<path d="M9.10905 1.0533L8.02897 2.07869C7.95884 2.14527 7.91804 2.23697 7.91553 2.33363L7.9154 2.3431L7.91549 2.35115C7.91749 2.44177 7.95318 2.52839 8.01558 2.59412C8.08215 2.66424 8.17386 2.70505 8.27052 2.70756L8.27999 2.70768L8.28804 2.70759C8.37865 2.70559 8.46527 2.66991 8.53101 2.60751L9.61108 1.58211C9.68121 1.51554 9.72201 1.42384 9.72453 1.32717L9.72465 1.31771L9.72456 1.30966C9.72256 1.21904 9.68688 1.13242 9.62447 1.06669C9.5579 0.996565 9.46619 0.955759 9.36953 0.953248L9.36006 0.953125L9.35201 0.953214C9.2614 0.955216 9.17478 0.990898 9.10905 1.0533Z" fill="#1C1C1C"/>
</g>
</g>
</svg>
