<svg width="12" height="12" viewBox="0 0 12 12" fill="none" xmlns="http://www.w3.org/2000/svg">
<g id="User">
<g id="Vector">
<path fill-rule="evenodd" clip-rule="evenodd" d="M6.08334 1.38541C6.08334 1.38541 6.75067 1.38541 7.36067 1.64341C7.36067 1.64341 7.94958 1.8925 8.40354 2.34646C8.40354 2.34646 8.8575 2.80043 9.10659 3.38933C9.10659 3.38933 9.36459 3.99933 9.36459 4.66666C9.36459 4.66666 9.36459 5.33398 9.10659 5.94398C9.10659 5.94398 8.8575 6.53289 8.40354 6.98685C8.40354 6.98685 7.94958 7.44081 7.36067 7.6899C7.36067 7.6899 6.75067 7.94791 6.08334 7.94791C6.08334 7.94791 5.41602 7.94791 4.80602 7.6899C4.80602 7.6899 4.21711 7.44081 3.76315 6.98685C3.76315 6.98685 3.30919 6.53289 3.0601 5.94398C3.0601 5.94398 2.80209 5.33398 2.80209 4.66666C2.80209 4.66666 2.80209 3.99933 3.0601 3.38933C3.0601 3.38933 3.30919 2.80042 3.76315 2.34646C3.76315 2.34646 4.21711 1.8925 4.80602 1.64341C4.80602 1.64341 5.41602 1.38541 6.08334 1.38541ZM6.08334 2.11457C6.08334 2.11457 5.02624 2.11457 4.27875 2.86206C4.27875 2.86206 3.53126 3.60955 3.53126 4.66666C3.53126 4.66666 3.53126 5.72376 4.27875 6.47125C4.27875 6.47125 5.02624 7.21874 6.08334 7.21874C6.08334 7.21874 7.14045 7.21874 7.88794 6.47125C7.88794 6.47125 8.63543 5.72376 8.63543 4.66666C8.63543 4.66666 8.63543 3.60955 7.88794 2.86206C7.88794 2.86206 7.14045 2.11457 6.08334 2.11457Z" fill="#1C1C1C"/>
<path d="M8.45332 8.5826C9.55322 9.21769 10.1882 10.3177 10.1882 10.3177C10.2365 10.4014 10.3161 10.4625 10.4095 10.4876C10.4403 10.4958 10.472 10.5 10.5039 10.5C10.5077 10.5 10.5116 10.4999 10.5154 10.4998C10.5754 10.4979 10.6341 10.4812 10.6862 10.4512C10.799 10.386 10.8685 10.2657 10.8685 10.1354C10.8685 10.1298 10.8684 10.1242 10.8681 10.1185C10.8654 10.0603 10.8488 10.0036 10.8197 9.95315C10.087 8.68394 8.81794 7.95114 8.81794 7.95114C7.54882 7.21834 6.08334 7.21834 6.08334 7.21834C4.61786 7.21834 3.34875 7.95114 3.34875 7.95114C2.07974 8.68388 1.34713 9.95295 1.34713 9.95295C1.31514 10.0084 1.29819 10.0714 1.29819 10.1354L1.29825 10.142C1.29878 10.1717 1.30294 10.2012 1.31062 10.2298C1.33565 10.3232 1.39676 10.4028 1.48051 10.4512C1.53592 10.4832 1.59878 10.5 1.66277 10.5C1.66952 10.5 1.67626 10.4998 1.683 10.4994C1.80587 10.4926 1.91701 10.4243 1.97853 10.3177C2.61347 9.21769 3.71336 8.5826 3.71336 8.5826C4.81326 7.94751 6.08334 7.94751 6.08334 7.94751C7.35343 7.94751 8.45332 8.5826 8.45332 8.5826Z" fill="#1C1C1C"/>
</g>
</g>
</svg>
